<mxfile host="app.diagrams.net" modified="2024-04-01T12:14:16.675Z" agent="Mozilla/5.0 (X11; Linux x86_64) AppleWebKit/537.36 (KHTML, like Gecko) Chrome/122.0.0.0 Safari/537.36" etag="MwyxmBWrx_xErMQPWR5T" version="24.2.1" type="github">
  <diagram name="第 1 页" id="SFp6RgGqiiW5XQGxeMV2">
    <mxGraphModel dx="1169" dy="1695" grid="1" gridSize="10" guides="1" tooltips="1" connect="1" arrows="1" fold="1" page="1" pageScale="1" pageWidth="827" pageHeight="1169" math="0" shadow="0">
      <root>
        <mxCell id="0" />
        <mxCell id="1" parent="0" />
        <mxCell id="GsIp7g7lwOqC_kdJoe7d-1" style="edgeStyle=orthogonalEdgeStyle;rounded=0;orthogonalLoop=1;jettySize=auto;html=1;exitX=0.5;exitY=1;exitDx=0;exitDy=0;entryX=0.5;entryY=1;entryDx=0;entryDy=0;" edge="1" parent="1">
          <mxGeometry relative="1" as="geometry">
            <mxPoint x="210" y="-750" as="sourcePoint" />
            <mxPoint x="210" y="-750" as="targetPoint" />
          </mxGeometry>
        </mxCell>
        <mxCell id="GsIp7g7lwOqC_kdJoe7d-2" value="&lt;b&gt;&lt;font style=&quot;background-color: rgb(255, 255, 255);&quot;&gt;Object1&lt;/font&gt;&lt;/b&gt;" style="swimlane;childLayout=stackLayout;horizontal=1;startSize=50;horizontalStack=0;rounded=1;fontSize=14;fontStyle=0;strokeWidth=2;resizeParent=0;resizeLast=1;shadow=0;dashed=0;align=center;arcSize=4;whiteSpace=wrap;html=1;labelBackgroundColor=#FFFFFF;fillColor=#d5e8d4;strokeColor=#82b366;" vertex="1" parent="1">
          <mxGeometry x="60" y="-940" width="160" height="240" as="geometry" />
        </mxCell>
        <mxCell id="GsIp7g7lwOqC_kdJoe7d-3" value="&lt;div style=&quot;text-align: center; font-size: 14px;&quot;&gt;&lt;span style=&quot;font-size: 14px; background-color: initial; white-space-collapse: preserve;&quot;&gt;&#x9;&lt;/span&gt;&lt;span style=&quot;white-space-collapse: preserve;&quot;&gt;&amp;nbsp;     &lt;/span&gt;&lt;/div&gt;&lt;div style=&quot;text-align: center; font-size: 14px;&quot;&gt;&lt;span style=&quot;background-color: initial;&quot;&gt;&lt;font style=&quot;font-size: 14px;&quot;&gt;&lt;span style=&quot;white-space: pre;&quot;&gt;&#x9;&lt;/span&gt;&amp;nbsp; &amp;nbsp; &amp;nbsp;Signal1&lt;/font&gt;&lt;/span&gt;&lt;/div&gt;&lt;font style=&quot;font-size: 14px;&quot;&gt;&lt;span style=&quot;white-space: pre;&quot;&gt;&lt;div style=&quot;text-align: center;&quot;&gt;&lt;span style=&quot;background-color: initial;&quot;&gt;&#x9;&lt;/span&gt;&lt;span style=&quot;background-color: initial;&quot;&gt;&#x9;&lt;/span&gt;&lt;/div&gt;&lt;/span&gt;&lt;span style=&quot;white-space: pre;&quot;&gt;&lt;div style=&quot;text-align: center;&quot;&gt;&lt;span style=&quot;background-color: initial;&quot;&gt;&#x9;&lt;/span&gt;     &lt;span style=&quot;background-color: initial; white-space-collapse: collapse;&quot;&gt;Signal2&lt;/span&gt;&lt;/div&gt;&lt;/span&gt;&lt;/font&gt;&lt;div style=&quot;text-align: center; font-size: 14px;&quot;&gt;&lt;font style=&quot;font-size: 14px;&quot;&gt;&lt;br&gt;&lt;/font&gt;&lt;/div&gt;&lt;div style=&quot;text-align: center; font-size: 14px;&quot;&gt;&lt;font style=&quot;font-size: 14px;&quot;&gt;&lt;br&gt;&lt;/font&gt;&lt;/div&gt;&lt;div style=&quot;text-align: center; font-size: 14px;&quot;&gt;&lt;font style=&quot;font-size: 14px;&quot;&gt;&lt;br&gt;&lt;/font&gt;&lt;/div&gt;&lt;div style=&quot;text-align: center; font-size: 14px;&quot;&gt;&lt;font style=&quot;font-size: 14px;&quot;&gt;&lt;br&gt;&lt;/font&gt;&lt;/div&gt;&lt;span style=&quot;white-space: pre; font-size: 14px;&quot;&gt;&lt;div style=&quot;text-align: center;&quot;&gt;&lt;font style=&quot;font-size: 14px;&quot;&gt;&lt;span style=&quot;background-color: initial;&quot;&gt;&#x9;&lt;/span&gt;&lt;span style=&quot;background-color: initial;&quot;&gt;&#x9;&lt;/span&gt;&lt;/font&gt;&lt;/div&gt;&lt;/span&gt;" style="align=left;strokeColor=#82b366;fillColor=#d5e8d4;spacingLeft=4;fontSize=12;verticalAlign=top;resizable=0;rotatable=0;part=1;html=1;" vertex="1" parent="GsIp7g7lwOqC_kdJoe7d-2">
          <mxGeometry y="50" width="160" height="190" as="geometry" />
        </mxCell>
        <mxCell id="GsIp7g7lwOqC_kdJoe7d-4" value="" style="endArrow=none;html=1;rounded=0;exitX=0;exitY=0.5;exitDx=0;exitDy=0;entryX=1;entryY=0.5;entryDx=0;entryDy=0;entryPerimeter=0;" edge="1" parent="GsIp7g7lwOqC_kdJoe7d-2" source="GsIp7g7lwOqC_kdJoe7d-3" target="GsIp7g7lwOqC_kdJoe7d-3">
          <mxGeometry relative="1" as="geometry">
            <mxPoint y="160" as="sourcePoint" />
            <mxPoint x="160" y="160" as="targetPoint" />
            <Array as="points" />
          </mxGeometry>
        </mxCell>
        <mxCell id="GsIp7g7lwOqC_kdJoe7d-5" value="&lt;b style=&quot;background-color: rgb(255, 255, 255);&quot;&gt;Object2&lt;/b&gt;" style="swimlane;childLayout=stackLayout;horizontal=1;startSize=50;horizontalStack=0;rounded=1;fontSize=14;fontStyle=0;strokeWidth=2;resizeParent=0;resizeLast=1;shadow=0;dashed=0;align=center;arcSize=4;whiteSpace=wrap;html=1;fillColor=#d5e8d4;strokeColor=#82b366;" vertex="1" parent="1">
          <mxGeometry x="610" y="-860" width="160" height="240" as="geometry" />
        </mxCell>
        <mxCell id="GsIp7g7lwOqC_kdJoe7d-6" value="&lt;div style=&quot;font-size: 14px;&quot;&gt;&lt;font style=&quot;font-size: 14px;&quot;&gt;&lt;span style=&quot;background-color: initial;&quot;&gt;Signal1&lt;/span&gt;&lt;/font&gt;&lt;/div&gt;&lt;font style=&quot;font-size: 14px;&quot;&gt;&lt;span style=&quot;white-space: pre;&quot;&gt;&lt;div style=&quot;&quot;&gt;&lt;span style=&quot;background-color: initial;&quot;&gt;&#x9;&lt;/span&gt;&lt;span style=&quot;background-color: initial;&quot;&gt;&#x9;&lt;/span&gt;&lt;/div&gt;&lt;/span&gt;&lt;span style=&quot;white-space: pre;&quot;&gt;&lt;div style=&quot;&quot;&gt;&lt;span style=&quot;background-color: initial; white-space-collapse: collapse;&quot;&gt;Signal2&lt;/span&gt;&lt;/div&gt;&lt;/span&gt;&lt;/font&gt;&lt;div style=&quot;font-size: 14px;&quot;&gt;&lt;font style=&quot;font-size: 14px;&quot;&gt;&lt;br&gt;&lt;/font&gt;&lt;/div&gt;&lt;div style=&quot;font-size: 14px;&quot;&gt;&lt;font style=&quot;font-size: 14px;&quot;&gt;&lt;br&gt;&lt;/font&gt;&lt;/div&gt;&lt;div style=&quot;font-size: 14px;&quot;&gt;&lt;span style=&quot;background-color: initial;&quot;&gt;&lt;br&gt;&lt;/span&gt;&lt;/div&gt;&lt;div style=&quot;font-size: 14px;&quot;&gt;&lt;span style=&quot;background-color: initial;&quot;&gt;slot1&lt;/span&gt;&lt;br&gt;&lt;/div&gt;&lt;div style=&quot;font-size: 14px;&quot;&gt;&lt;font style=&quot;font-size: 14px;&quot;&gt;&lt;br&gt;&lt;/font&gt;&lt;/div&gt;&lt;span style=&quot;white-space: pre; font-size: 14px;&quot;&gt;&lt;div style=&quot;&quot;&gt;&lt;font style=&quot;font-size: 14px;&quot;&gt;&lt;font style=&quot;background-color: initial; white-space-collapse: collapse; font-size: 14px;&quot;&gt;slot2&lt;/font&gt;&lt;/font&gt;&lt;/div&gt;&lt;/span&gt;" style="align=center;strokeColor=#82b366;fillColor=#d5e8d4;spacingLeft=4;fontSize=12;verticalAlign=top;resizable=0;rotatable=0;part=1;html=1;" vertex="1" parent="GsIp7g7lwOqC_kdJoe7d-5">
          <mxGeometry y="50" width="160" height="190" as="geometry" />
        </mxCell>
        <mxCell id="GsIp7g7lwOqC_kdJoe7d-7" value="" style="endArrow=none;html=1;rounded=0;exitX=0;exitY=0.5;exitDx=0;exitDy=0;entryX=1;entryY=0.5;entryDx=0;entryDy=0;entryPerimeter=0;" edge="1" parent="GsIp7g7lwOqC_kdJoe7d-5" source="GsIp7g7lwOqC_kdJoe7d-6" target="GsIp7g7lwOqC_kdJoe7d-6">
          <mxGeometry relative="1" as="geometry">
            <mxPoint y="160" as="sourcePoint" />
            <mxPoint x="160" y="160" as="targetPoint" />
            <Array as="points" />
          </mxGeometry>
        </mxCell>
        <mxCell id="GsIp7g7lwOqC_kdJoe7d-8" value="&lt;span style=&quot;background-color: rgb(255, 255, 255);&quot;&gt;&lt;b&gt;Object3&lt;/b&gt;&lt;/span&gt;" style="swimlane;childLayout=stackLayout;horizontal=1;startSize=50;horizontalStack=0;rounded=1;fontSize=14;fontStyle=0;strokeWidth=2;resizeParent=0;resizeLast=1;shadow=0;dashed=0;align=center;arcSize=4;whiteSpace=wrap;html=1;fillColor=#d5e8d4;strokeColor=#82b366;" vertex="1" parent="1">
          <mxGeometry x="60" y="-560" width="160" height="240" as="geometry" />
        </mxCell>
        <mxCell id="GsIp7g7lwOqC_kdJoe7d-9" value="&lt;font style=&quot;&quot;&gt;&lt;br&gt;&lt;span style=&quot;font-size: 14px;&quot;&gt;Signal1&lt;/span&gt;&lt;br&gt;&lt;span style=&quot;font-size: 14px; white-space: pre;&quot;&gt;&#x9;&lt;/span&gt;&lt;span style=&quot;font-size: 14px; white-space: pre;&quot;&gt;&#x9;&lt;/span&gt;&lt;br&gt;&lt;br&gt;&lt;br&gt;&lt;br&gt;&lt;br&gt;&lt;font style=&quot;font-size: 14px;&quot;&gt;slot1&lt;/font&gt;&lt;br&gt;&lt;span style=&quot;font-size: 14px; white-space: pre;&quot;&gt;&#x9;&lt;/span&gt;&lt;span style=&quot;font-size: 14px; white-space: pre;&quot;&gt;&#x9;&lt;/span&gt;&lt;/font&gt;" style="align=center;strokeColor=#82b366;fillColor=#d5e8d4;spacingLeft=4;fontSize=12;verticalAlign=top;resizable=0;rotatable=0;part=1;html=1;" vertex="1" parent="GsIp7g7lwOqC_kdJoe7d-8">
          <mxGeometry y="50" width="160" height="190" as="geometry" />
        </mxCell>
        <mxCell id="GsIp7g7lwOqC_kdJoe7d-10" value="" style="endArrow=none;html=1;rounded=0;exitX=0;exitY=0.5;exitDx=0;exitDy=0;entryX=1;entryY=0.5;entryDx=0;entryDy=0;entryPerimeter=0;" edge="1" parent="GsIp7g7lwOqC_kdJoe7d-8" source="GsIp7g7lwOqC_kdJoe7d-9" target="GsIp7g7lwOqC_kdJoe7d-9">
          <mxGeometry relative="1" as="geometry">
            <mxPoint y="160" as="sourcePoint" />
            <mxPoint x="160" y="160" as="targetPoint" />
            <Array as="points" />
          </mxGeometry>
        </mxCell>
        <mxCell id="GsIp7g7lwOqC_kdJoe7d-11" value="&lt;span style=&quot;background-color: rgb(255, 255, 255);&quot;&gt;&lt;b&gt;Object4&lt;/b&gt;&lt;/span&gt;" style="swimlane;childLayout=stackLayout;horizontal=1;startSize=50;horizontalStack=0;rounded=1;fontSize=14;fontStyle=0;strokeWidth=2;resizeParent=0;resizeLast=1;shadow=0;dashed=0;align=center;arcSize=4;whiteSpace=wrap;html=1;fillColor=#d5e8d4;strokeColor=#82b366;" vertex="1" parent="1">
          <mxGeometry x="610" y="-430" width="160" height="240" as="geometry" />
        </mxCell>
        <mxCell id="GsIp7g7lwOqC_kdJoe7d-12" value="&lt;font style=&quot;font-size: 14px;&quot;&gt;&lt;br&gt;&lt;br&gt;&lt;br&gt;&lt;br&gt;&lt;br&gt;&lt;span style=&quot;white-space: pre;&quot;&gt;&#x9;&lt;/span&gt;&lt;span style=&quot;white-space: pre;&quot;&gt;&#x9;&lt;/span&gt;slot1&lt;br&gt;&lt;span style=&quot;white-space: pre;&quot;&gt;&#x9;&lt;/span&gt;&lt;span style=&quot;white-space: pre;&quot;&gt;&#x9;&lt;/span&gt;&lt;br&gt;&lt;span style=&quot;white-space: pre;&quot;&gt;&#x9;&lt;/span&gt;&lt;span style=&quot;white-space: pre;&quot;&gt;&#x9;&lt;/span&gt;slot2&lt;br&gt;&lt;span style=&quot;white-space: pre;&quot;&gt;&#x9;&lt;/span&gt;&lt;span style=&quot;white-space: pre;&quot;&gt;&#x9;&lt;/span&gt;&lt;br&gt;&lt;span style=&quot;white-space: pre;&quot;&gt;&#x9;&lt;/span&gt;&lt;span style=&quot;white-space: pre;&quot;&gt;&#x9;&lt;/span&gt;slot3&lt;/font&gt;" style="align=left;strokeColor=#82b366;fillColor=#d5e8d4;spacingLeft=4;fontSize=12;verticalAlign=top;resizable=0;rotatable=0;part=1;html=1;" vertex="1" parent="GsIp7g7lwOqC_kdJoe7d-11">
          <mxGeometry y="50" width="160" height="190" as="geometry" />
        </mxCell>
        <mxCell id="GsIp7g7lwOqC_kdJoe7d-13" value="" style="endArrow=none;html=1;rounded=0;" edge="1" parent="GsIp7g7lwOqC_kdJoe7d-11">
          <mxGeometry relative="1" as="geometry">
            <mxPoint y="130" as="sourcePoint" />
            <mxPoint x="160" y="131" as="targetPoint" />
            <Array as="points" />
          </mxGeometry>
        </mxCell>
        <mxCell id="GsIp7g7lwOqC_kdJoe7d-14" value="" style="edgeStyle=elbowEdgeStyle;elbow=horizontal;endArrow=classic;html=1;curved=0;rounded=0;endSize=8;startSize=8;entryX=0;entryY=0.6;entryDx=0;entryDy=0;entryPerimeter=0;" edge="1" parent="1" target="GsIp7g7lwOqC_kdJoe7d-6">
          <mxGeometry width="50" height="50" relative="1" as="geometry">
            <mxPoint x="230" y="-860" as="sourcePoint" />
            <mxPoint x="571.8200000000002" y="-693.3399999999999" as="targetPoint" />
            <Array as="points">
              <mxPoint x="480" y="-740" />
              <mxPoint x="410" y="-780" />
              <mxPoint x="410" y="-780" />
            </Array>
          </mxGeometry>
        </mxCell>
        <mxCell id="GsIp7g7lwOqC_kdJoe7d-15" value="" style="edgeStyle=elbowEdgeStyle;elbow=horizontal;endArrow=classic;html=1;curved=0;rounded=0;endSize=8;startSize=8;entryX=0;entryY=0.842;entryDx=0;entryDy=0;entryPerimeter=0;movable=1;resizable=1;rotatable=1;deletable=1;editable=1;locked=0;connectable=1;exitX=1;exitY=0.158;exitDx=0;exitDy=0;exitPerimeter=0;" edge="1" parent="1" source="GsIp7g7lwOqC_kdJoe7d-3" target="GsIp7g7lwOqC_kdJoe7d-6">
          <mxGeometry width="50" height="50" relative="1" as="geometry">
            <mxPoint x="220" y="-870" as="sourcePoint" />
            <mxPoint x="270" y="-920" as="targetPoint" />
            <Array as="points">
              <mxPoint x="480" y="-810" />
            </Array>
          </mxGeometry>
        </mxCell>
        <mxCell id="GsIp7g7lwOqC_kdJoe7d-16" value="" style="edgeStyle=elbowEdgeStyle;elbow=horizontal;endArrow=classic;html=1;curved=0;rounded=0;endSize=8;startSize=8;entryX=-0.017;entryY=0.54;entryDx=0;entryDy=0;entryPerimeter=0;exitX=1.004;exitY=0.382;exitDx=0;exitDy=0;exitPerimeter=0;" edge="1" parent="1" source="GsIp7g7lwOqC_kdJoe7d-3" target="GsIp7g7lwOqC_kdJoe7d-12">
          <mxGeometry width="50" height="50" relative="1" as="geometry">
            <mxPoint x="220" y="-840" as="sourcePoint" />
            <mxPoint x="310" y="-290" as="targetPoint" />
            <Array as="points">
              <mxPoint x="300" y="-810" />
              <mxPoint x="300" y="-560" />
            </Array>
          </mxGeometry>
        </mxCell>
        <mxCell id="GsIp7g7lwOqC_kdJoe7d-17" value="" style="edgeStyle=elbowEdgeStyle;elbow=horizontal;endArrow=classic;html=1;curved=0;rounded=0;endSize=8;startSize=8;entryX=-0.004;entryY=0.923;entryDx=0;entryDy=0;entryPerimeter=0;" edge="1" parent="1" target="GsIp7g7lwOqC_kdJoe7d-12">
          <mxGeometry width="50" height="50" relative="1" as="geometry">
            <mxPoint x="220" y="-470" as="sourcePoint" />
            <mxPoint x="270" y="-520" as="targetPoint" />
            <Array as="points">
              <mxPoint x="240" y="-320" />
            </Array>
          </mxGeometry>
        </mxCell>
        <UserObject label="&lt;font face=&quot;Verdana&quot;&gt;connect(Object1, signal1, Object2, slot1)&lt;br&gt;&lt;br style=&quot;font-size: 14px;&quot;&gt;connect(Object1, signal1, Object2, slot2)&lt;/font&gt;" placeholders="1" name="Variable" id="GsIp7g7lwOqC_kdJoe7d-18">
          <mxCell style="text;html=1;strokeColor=none;fillColor=none;align=center;verticalAlign=middle;whiteSpace=wrap;overflow=hidden;fontSize=14;fontStyle=1" vertex="1" parent="1">
            <mxGeometry x="249" y="-930" width="330" height="60" as="geometry" />
          </mxCell>
        </UserObject>
        <UserObject label="&lt;font face=&quot;Verdana&quot;&gt;connect(Object1, signal2, Object4, slot1)&lt;br&gt;&lt;/font&gt;" placeholders="1" name="Variable" id="GsIp7g7lwOqC_kdJoe7d-19">
          <mxCell style="text;html=1;strokeColor=none;fillColor=none;align=center;verticalAlign=middle;whiteSpace=wrap;overflow=hidden;fontSize=14;fontStyle=1" vertex="1" parent="1">
            <mxGeometry x="310" y="-530" width="330" height="60" as="geometry" />
          </mxCell>
        </UserObject>
        <UserObject label="&lt;font face=&quot;Verdana&quot;&gt;connect(Object3, signal1, Object4, slot3)&lt;br&gt;&lt;/font&gt;" placeholders="1" name="Variable" id="GsIp7g7lwOqC_kdJoe7d-20">
          <mxCell style="text;html=1;strokeColor=none;fillColor=none;align=center;verticalAlign=middle;whiteSpace=wrap;overflow=hidden;fontSize=14;fontStyle=1" vertex="1" parent="1">
            <mxGeometry x="249" y="-210" width="330" height="60" as="geometry" />
          </mxCell>
        </UserObject>
        <mxCell id="GsIp7g7lwOqC_kdJoe7d-21" value="Qt——信号(Signal)与插槽(Slot)" style="text;strokeColor=none;fillColor=none;html=1;fontSize=24;fontStyle=1;verticalAlign=middle;align=center;" vertex="1" parent="1">
          <mxGeometry x="320" y="-1040" width="192" height="40" as="geometry" />
        </mxCell>
      </root>
    </mxGraphModel>
  </diagram>
</mxfile>
